<?xml version="1.0" encoding="UTF-8"?><svg id="Calque_1" xmlns="http://www.w3.org/2000/svg" viewBox="0 0 94 33"><defs><style>.cls-1{fill:#fff;}.cls-2{fill:#ec6726;}</style></defs><path d="m49.54,24h-3.02v-8.26c0-.23,0-.51,0-.84,0-.34.02-.68.03-1.04.01-.36.03-.68.04-.97-.07.08-.22.23-.44.44-.21.2-.42.38-.61.55l-1.64,1.32-1.46-1.82,4.6-3.66h2.48v14.28Z"/><circle class="cls-2" cx="16.5" cy="16.5" r="16.5"/><circle class="cls-2" cx="77.5" cy="16.5" r="16.5"/><path class="cls-1" d="m13.87,17.86v-2.44h5.24v2.44h-5.24Z"/><path class="cls-1" d="m78.55,15.88h3.78v2.14h-3.78v3.76h-2.14v-3.76h-3.78v-2.14h3.78v-3.81h2.14v3.81Z"/></svg>