<?xml version="1.0" encoding="UTF-8"?><svg id="Calque_1" xmlns="http://www.w3.org/2000/svg" viewBox="0 0 934.04 111.81"><defs><style>.cls-1{fill:none;stroke:#ec6726;stroke-width:2px;}.cls-2{fill:#ec6726;}</style></defs><path class="cls-2" d="m51.68,8.5c-2.06,0-4.03.82-5.48,2.27-1.45,1.45-2.27,3.42-2.27,5.48v42.62h7.75c0,3.08,1.22,6.04,3.4,8.22s5.14,3.4,8.22,3.4,6.04-1.22,8.22-3.4,3.4-5.14,3.4-8.22h23.25c0,3.08,1.22,6.04,3.4,8.22s5.14,3.4,8.22,3.4,6.04-1.22,8.22-3.4c2.18-2.18,3.4-5.14,3.4-8.22h7.75v-19.38l-11.62-15.5h-11.62v-15.5h-54.25Zm54.25,21.31h9.69l7.63,9.69h-17.32v-9.69Zm-42.62,23.25c1.54,0,3.02.61,4.11,1.7,1.09,1.09,1.7,2.57,1.7,4.11s-.61,3.02-1.7,4.11c-1.09,1.09-2.57,1.7-4.11,1.7s-3.02-.61-4.11-1.7c-1.09-1.09-1.7-2.57-1.7-4.11s.61-3.02,1.7-4.11c1.09-1.09,2.57-1.7,4.11-1.7Zm46.5,0c1.54,0,3.02.61,4.11,1.7,1.09,1.09,1.7,2.57,1.7,4.11s-.61,3.02-1.7,4.11c-1.09,1.09-2.57,1.7-4.11,1.7s-3.02-.61-4.11-1.7c-1.09-1.09-1.7-2.57-1.7-4.11s.61-3.02,1.7-4.11c1.09-1.09,2.57-1.7,4.11-1.7Z"/><path class="cls-2" d="m464.3,69.92c-1.67,0-3.11-.6-4.3-1.79-1.19-1.19-1.79-2.62-1.79-4.3v-30.42c0-1.67.6-3.11,1.79-4.3,1.19-1.19,2.62-1.79,4.3-1.79h3.04v-6.08c0-4.21,1.48-7.79,4.45-10.76,2.96-2.96,6.55-4.45,10.76-4.45s7.8,1.48,10.76,4.45c2.97,2.97,4.45,6.55,4.45,10.76v6.08h3.04c1.67,0,3.1.6,4.3,1.79,1.19,1.19,1.79,2.62,1.79,4.3v30.42c0,1.67-.6,3.11-1.79,4.3-1.19,1.19-2.62,1.79-4.3,1.79h-36.5Zm18.25-15.21c1.67,0,3.11-.6,4.3-1.79,1.19-1.19,1.79-2.62,1.79-4.3s-.6-3.11-1.79-4.3c-1.19-1.19-2.62-1.79-4.3-1.79s-3.11.6-4.3,1.79c-1.19,1.19-1.79,2.62-1.79,4.3s.6,3.11,1.79,4.3c1.19,1.19,2.62,1.79,4.3,1.79Zm-9.12-27.38h18.25v-6.08c0-2.53-.89-4.69-2.66-6.46-1.77-1.77-3.93-2.66-6.46-2.66s-4.69.89-6.46,2.66c-1.77,1.77-2.66,3.93-2.66,6.46v6.08Z"/><path class="cls-2" d="m877.62,6.08l-21,9.33c-2.16.96-3.57,3.12-3.57,5.49v14.1c0,16.65,11.52,32.22,27,36,15.48-3.78,27-19.35,27-36v-14.1c0-2.37-1.41-4.53-3.57-5.49l-21-9.33c-1.53-.69-3.33-.69-4.86,0Zm-5.7,44.79l-7.77-7.77c-.28-.28-.5-.61-.65-.97-.15-.36-.23-.75-.23-1.14s.08-.78.23-1.14c.15-.36.37-.69.65-.97.28-.28.61-.5.97-.65.36-.15.75-.23,1.15-.23s.78.08,1.14.23c.36.15.69.37.97.65l5.67,5.64,17.64-17.64c.28-.28.61-.5.97-.65.36-.15.75-.23,1.15-.23s.78.08,1.15.23c.36.15.69.37.97.65.28.28.5.61.65.97.15.36.23.75.23,1.14s-.08.78-.23,1.14c-.15.36-.37.69-.65.97l-19.77,19.77c-.28.28-.61.5-.97.65-.36.15-.75.23-1.15.23s-.78-.08-1.14-.23c-.36-.15-.69-.37-.97-.65Z"/><path d="m0,107v-14.28h3.03v11.78h5.79v2.5H0Zm14.05-10.92v10.92h-2.98v-10.92h2.98Zm-1.48-4.28c.44,0,.82.1,1.14.31.32.2.48.58.48,1.14s-.16.94-.48,1.15c-.32.21-.7.31-1.14.31s-.83-.1-1.15-.31c-.31-.22-.47-.6-.47-1.15s.16-.94.47-1.14c.32-.21.7-.31,1.15-.31Zm7.22,15.2l-4.16-10.92h3.12l2.11,6.22c.12.36.21.75.27,1.15.07.4.12.76.15,1.08h.08c.02-.35.07-.71.14-1.1.08-.39.18-.77.3-1.13l2.1-6.22h3.12l-4.16,10.92h-3.06Zm14.88-11.12c.15,0,.32.01.52.03.2.01.36.03.49.06l-.22,2.79c-.1-.03-.24-.06-.42-.07-.18-.02-.33-.03-.46-.03-.38,0-.76.05-1.12.15-.36.1-.68.26-.97.48-.29.21-.51.5-.68.86-.16.35-.24.78-.24,1.3v5.56h-2.98v-10.92h2.26l.44,1.84h.15c.21-.37.48-.71.8-1.02.33-.31.69-.56,1.1-.74.42-.19.87-.28,1.35-.28Zm7.46-.02c1.46,0,2.59.32,3.37.96.78.64,1.17,1.61,1.17,2.91v7.28h-2.08l-.58-1.48h-.08c-.31.39-.63.71-.96.96-.33.25-.7.43-1.12.55-.42.12-.94.18-1.54.18-.64,0-1.22-.12-1.74-.37-.51-.25-.91-.62-1.2-1.13-.29-.51-.44-1.17-.44-1.95,0-1.16.41-2.01,1.22-2.56.81-.55,2.03-.86,3.66-.92l1.89-.06v-.48c0-.57-.15-.99-.45-1.26-.3-.27-.72-.4-1.25-.4s-1.04.07-1.55.22-1.02.34-1.52.57l-.99-2.01c.58-.31,1.23-.55,1.94-.72.72-.18,1.47-.26,2.24-.26Zm1.58,6.08l-1.15.04c-.96.03-1.63.2-2.01.52-.37.32-.56.74-.56,1.26,0,.46.13.78.4.98.27.19.62.28,1.04.28.64,0,1.18-.19,1.61-.57.44-.38.66-.91.66-1.61v-.9Zm9.01-5.86v10.92h-2.98v-10.92h2.98Zm-1.48-4.28c.44,0,.82.1,1.14.31.32.2.48.58.48,1.14s-.16.94-.48,1.15c-.32.21-.7.31-1.14.31s-.83-.1-1.15-.31c-.31-.22-.47-.6-.47-1.15s.16-.94.47-1.14c.32-.21.7-.31,1.15-.31Zm12.24,11.95c0,.74-.18,1.37-.53,1.88-.35.51-.86.9-1.55,1.16-.69.26-1.55.39-2.58.39-.76,0-1.42-.05-1.96-.15-.54-.1-1.09-.26-1.64-.49v-2.46c.59.27,1.23.49,1.9.66.68.17,1.28.25,1.8.25.58,0,.99-.08,1.24-.25.25-.18.38-.4.38-.68,0-.18-.05-.35-.16-.49-.1-.15-.31-.32-.64-.5-.33-.19-.85-.43-1.56-.73-.68-.29-1.25-.58-1.69-.87-.44-.29-.76-.64-.98-1.03-.21-.4-.31-.92-.31-1.53,0-1.01.39-1.77,1.17-2.28.79-.51,1.84-.77,3.15-.77.68,0,1.32.07,1.93.21.62.14,1.25.35,1.9.65l-.9,2.15c-.54-.24-1.05-.43-1.53-.58-.48-.15-.96-.22-1.46-.22-.44,0-.76.06-.99.18-.22.12-.33.3-.33.54,0,.18.06.33.17.47.12.14.34.29.66.46.33.16.82.37,1.46.63.62.25,1.16.52,1.61.8.46.27.81.61,1.05,1.03.25.4.37.93.37,1.57Zm12.25-2.24c0,.91-.12,1.72-.37,2.42-.24.7-.6,1.3-1.06,1.79-.46.48-1.02.85-1.68,1.09-.65.25-1.39.37-2.21.37-.77,0-1.47-.12-2.12-.37-.64-.25-1.19-.61-1.67-1.09-.47-.49-.83-1.08-1.09-1.79-.25-.7-.38-1.51-.38-2.42,0-1.21.21-2.24.64-3.08.43-.84,1.04-1.48,1.84-1.91.79-.44,1.74-.65,2.84-.65,1.02,0,1.93.22,2.71.65.79.44,1.42,1.07,1.87,1.91.46.84.68,1.87.68,3.08Zm-7.55,0c0,.72.08,1.32.23,1.81.16.49.4.86.73,1.1.33.25.76.37,1.3.37s.95-.12,1.28-.37c.33-.25.57-.62.72-1.1.16-.49.23-1.09.23-1.81s-.08-1.32-.23-1.8c-.15-.48-.39-.84-.72-1.08-.33-.24-.76-.36-1.3-.36-.79,0-1.36.27-1.72.81-.35.54-.53,1.35-.53,2.43Zm16.21-5.64c1.17,0,2.1.32,2.81.96.71.63,1.06,1.65,1.06,3.05v7.12h-2.98v-6.38c0-.78-.14-1.37-.43-1.77-.28-.4-.72-.6-1.33-.6-.91,0-1.53.31-1.87.93-.33.62-.5,1.51-.5,2.67v5.14h-2.98v-10.92h2.28l.4,1.4h.17c.23-.38.52-.68.87-.92.35-.24.74-.41,1.16-.52.43-.11.87-.17,1.33-.17Zm15.33,15.93c-1.52,0-2.69-.27-3.5-.8-.8-.53-1.2-1.27-1.2-2.23,0-.66.21-1.21.61-1.65.41-.44,1.01-.76,1.81-.95-.31-.13-.57-.34-.8-.64-.23-.3-.34-.61-.34-.95,0-.42.12-.76.36-1.04.24-.28.59-.55,1.04-.82-.57-.25-1.03-.64-1.37-1.19-.33-.55-.5-1.19-.5-1.93,0-.79.17-1.47.52-2.02.35-.56.86-.99,1.52-1.28.67-.29,1.48-.44,2.44-.44.2,0,.44.01.7.04s.51.06.73.09c.23.03.38.06.46.08h3.81v1.51l-1.71.44c.16.24.27.5.35.77.08.27.12.56.12.87,0,1.17-.41,2.09-1.23,2.74-.81.65-1.95.98-3.4.98-.35-.02-.67-.05-.98-.08-.15.12-.26.24-.34.37-.08.13-.12.27-.12.41s.06.26.18.36c.12.09.31.16.55.22.25.04.55.07.92.07h1.86c1.2,0,2.11.26,2.73.77.63.51.95,1.27.95,2.26,0,1.28-.53,2.27-1.6,2.97-1.06.7-2.59,1.06-4.58,1.06Zm.13-1.94c.71,0,1.32-.07,1.83-.21.51-.13.91-.32,1.18-.57.27-.24.41-.53.41-.87,0-.27-.08-.49-.24-.65-.16-.16-.4-.27-.72-.33-.32-.07-.73-.1-1.23-.1h-1.54c-.36,0-.69.06-.99.17-.29.12-.51.28-.68.49-.17.21-.25.46-.25.74,0,.41.19.73.59.97.4.23.95.35,1.66.35Zm.48-8.28c.56,0,.97-.17,1.23-.52.26-.34.39-.81.39-1.41,0-.66-.14-1.15-.41-1.47-.27-.33-.67-.5-1.21-.5s-.96.17-1.23.5c-.27.33-.41.82-.41,1.47,0,.59.13,1.06.4,1.41.27.35.69.52,1.24.52Zm13.6-5.7c.15,0,.32.01.52.03.2.01.36.03.49.06l-.22,2.79c-.1-.03-.24-.06-.42-.07-.17-.02-.33-.03-.46-.03-.38,0-.76.05-1.12.15-.36.1-.68.26-.97.48-.29.21-.52.5-.68.86-.16.35-.24.78-.24,1.3v5.56h-2.98v-10.92h2.26l.44,1.84h.15c.21-.37.48-.71.8-1.02.32-.31.69-.56,1.1-.74.42-.19.87-.28,1.35-.28Zm7.46-.02c1.46,0,2.59.32,3.37.96.78.64,1.17,1.61,1.17,2.91v7.28h-2.08l-.58-1.48h-.08c-.31.39-.63.71-.96.96-.33.25-.7.43-1.12.55-.42.12-.94.18-1.54.18-.65,0-1.22-.12-1.74-.37-.51-.25-.91-.62-1.2-1.13-.29-.51-.44-1.17-.44-1.95,0-1.16.41-2.01,1.22-2.56.81-.55,2.04-.86,3.66-.92l1.9-.06v-.48c0-.57-.15-.99-.45-1.26-.3-.27-.72-.4-1.25-.4s-1.04.07-1.55.22-1.02.34-1.52.57l-.99-2.01c.58-.31,1.23-.55,1.94-.72.72-.18,1.47-.26,2.24-.26Zm1.58,6.08l-1.15.04c-.96.03-1.63.2-2.01.52-.37.32-.56.74-.56,1.26,0,.46.13.78.4.98.27.19.61.28,1.04.28.64,0,1.17-.19,1.61-.57.44-.38.66-.91.66-1.61v-.9Zm10.63,2.88c.33,0,.64-.03.95-.1.31-.06.62-.15.93-.24v2.22c-.32.14-.72.26-1.19.35-.47.1-.98.15-1.54.15-.65,0-1.24-.1-1.76-.31-.51-.22-.92-.58-1.22-1.1-.29-.53-.44-1.26-.44-2.2v-5.26h-1.42v-1.26l1.64-1,.86-2.3h1.9v2.32h3.06v2.24h-3.06v5.26c0,.42.12.73.35.94.24.2.56.3.95.3Zm14.11-8.74v10.92h-2.29l-.4-1.4h-.16c-.23.37-.53.67-.88.91-.35.23-.74.41-1.16.52-.42.11-.86.17-1.32.17-.78,0-1.46-.14-2.04-.41-.58-.28-1.03-.71-1.36-1.3-.32-.59-.48-1.35-.48-2.29v-7.12h2.98v6.38c0,.78.14,1.37.42,1.77.28.4.73.6,1.34.6s1.08-.14,1.43-.41c.35-.28.59-.69.72-1.22.14-.54.22-1.2.22-1.97v-5.14h2.98Zm6.1,0v10.92h-2.98v-10.92h2.98Zm-1.49-4.28c.44,0,.82.1,1.14.31.32.2.48.58.48,1.14s-.16.94-.48,1.15c-.32.21-.7.31-1.14.31s-.83-.1-1.15-.31c-.31-.22-.47-.6-.47-1.15s.16-.94.47-1.14c.32-.21.7-.31,1.15-.31Zm9.22,13.02c.32,0,.64-.03.95-.1.31-.06.62-.15.93-.24v2.22c-.32.14-.72.26-1.19.35-.47.1-.98.15-1.54.15-.65,0-1.24-.1-1.76-.31-.51-.22-.92-.58-1.22-1.1-.29-.53-.44-1.26-.44-2.2v-5.26h-1.43v-1.26l1.64-1,.86-2.3h1.9v2.32h3.06v2.24h-3.06v5.26c0,.42.12.73.35.94.24.2.56.3.95.3Zm8.59-8.94c1.01,0,1.88.19,2.61.59.73.38,1.29.94,1.69,1.68.4.74.6,1.63.6,2.69v1.44h-7.04c.03.84.28,1.5.75,1.98.47.47,1.13.71,1.97.71.7,0,1.34-.07,1.91-.21.58-.14,1.18-.36,1.79-.64v2.31c-.54.27-1.11.46-1.7.59-.59.12-1.3.18-2.14.18-1.09,0-2.06-.2-2.91-.61-.84-.4-1.5-1.02-1.98-1.85-.48-.83-.71-1.87-.71-3.12s.22-2.34.64-3.18c.44-.85,1.04-1.49,1.82-1.91.77-.43,1.68-.64,2.7-.64Zm.02,2.12c-.58,0-1.06.19-1.45.56-.38.37-.6.95-.65,1.75h4.18c0-.44-.09-.84-.24-1.18-.15-.35-.38-.62-.68-.82-.3-.2-.68-.3-1.15-.3Z"/><path d="m397.8,92.72c1.84,0,3.19.4,4.03,1.19.85.79,1.27,1.88,1.27,3.26,0,.62-.1,1.22-.28,1.8-.19.57-.5,1.07-.93,1.51-.42.44-.99.79-1.7,1.06-.71.25-1.59.38-2.63.38h-1.3v5.08h-3.03v-14.28h4.56Zm-.16,2.48h-1.38v4.24h1c.57,0,1.06-.07,1.47-.22.42-.15.74-.38.97-.7.23-.32.34-.73.34-1.23,0-.7-.2-1.22-.59-1.56-.39-.35-1-.52-1.82-.52Zm12.39.65c1.46,0,2.59.32,3.37.96.78.64,1.17,1.61,1.17,2.91v7.28h-2.08l-.58-1.48h-.08c-.31.39-.63.71-.96.96-.33.25-.7.43-1.12.55-.42.12-.94.18-1.54.18-.64,0-1.22-.12-1.74-.37-.51-.25-.91-.62-1.2-1.13-.29-.51-.44-1.17-.44-1.95,0-1.16.41-2.01,1.22-2.56.81-.55,2.03-.86,3.66-.92l1.89-.06v-.48c0-.57-.15-.99-.45-1.26-.3-.27-.72-.4-1.25-.4s-1.04.07-1.55.22c-.51.15-1.02.34-1.52.57l-.99-2.01c.58-.31,1.23-.55,1.94-.72.72-.18,1.47-.26,2.24-.26Zm1.58,6.08l-1.15.04c-.96.03-1.63.2-2.01.52-.37.32-.56.74-.56,1.26,0,.46.13.78.4.98.27.19.62.28,1.05.28.64,0,1.17-.19,1.61-.57.44-.38.66-.91.66-1.61v-.9Zm9.01-5.86v10.92h-2.98v-10.92h2.98Zm-1.48-4.28c.44,0,.82.1,1.14.31.32.2.48.58.48,1.14s-.16.94-.48,1.15c-.32.21-.7.31-1.14.31s-.83-.1-1.15-.31c-.31-.22-.47-.6-.47-1.15s.16-.94.47-1.14c.32-.21.7-.31,1.15-.31Zm9.12,4.07c1.01,0,1.88.19,2.61.59.73.38,1.29.94,1.69,1.68.4.74.6,1.63.6,2.69v1.44h-7.04c.03.84.28,1.5.75,1.98.48.47,1.13.71,1.97.71.7,0,1.34-.07,1.91-.21.58-.14,1.18-.36,1.79-.64v2.31c-.54.27-1.11.46-1.7.59-.59.12-1.3.18-2.14.18-1.09,0-2.06-.2-2.91-.61-.84-.4-1.5-1.02-1.98-1.85-.48-.83-.71-1.87-.71-3.12s.21-2.34.64-3.18c.44-.85,1.04-1.49,1.82-1.91.77-.43,1.68-.64,2.7-.64Zm.02,2.12c-.58,0-1.06.19-1.45.56-.38.37-.6.95-.65,1.75h4.18c0-.44-.09-.84-.24-1.18-.15-.35-.38-.62-.68-.82-.3-.2-.68-.3-1.15-.3Zm20.12-2.12c1.24,0,2.17.32,2.8.96.64.63.96,1.65.96,3.05v7.12h-2.99v-6.38c0-.78-.13-1.37-.4-1.77-.27-.4-.68-.6-1.24-.6-.79,0-1.35.28-1.68.85-.33.56-.5,1.36-.5,2.41v5.48h-2.98v-6.38c0-.52-.06-.96-.18-1.31-.12-.35-.3-.62-.54-.79-.24-.18-.55-.26-.93-.26-.55,0-.99.14-1.31.42-.31.27-.54.68-.67,1.22-.13.53-.2,1.19-.2,1.96v5.14h-2.98v-10.92h2.28l.4,1.4h.17c.22-.38.5-.68.83-.92.34-.24.71-.41,1.11-.52.4-.11.81-.17,1.23-.17.8,0,1.48.13,2.03.39.56.26.99.66,1.29,1.21h.26c.33-.56.78-.97,1.38-1.22.6-.25,1.21-.38,1.85-.38Zm11.33,0c1.01,0,1.88.19,2.61.59.73.38,1.29.94,1.69,1.68.4.74.6,1.63.6,2.69v1.44h-7.04c.03.84.28,1.5.75,1.98.48.47,1.13.71,1.97.71.7,0,1.33-.07,1.91-.21.58-.14,1.17-.36,1.79-.64v2.31c-.54.27-1.11.46-1.7.59-.59.12-1.3.18-2.14.18-1.09,0-2.06-.2-2.91-.61-.84-.4-1.5-1.02-1.98-1.85-.48-.83-.71-1.87-.71-3.12s.21-2.34.64-3.18c.44-.85,1.04-1.49,1.82-1.91.77-.43,1.68-.64,2.7-.64Zm.02,2.12c-.58,0-1.06.19-1.45.56-.38.37-.6.95-.65,1.75h4.18c0-.44-.09-.84-.24-1.18-.15-.35-.38-.62-.68-.82-.3-.2-.68-.3-1.15-.3Zm13.5-2.12c1.17,0,2.1.32,2.81.96.71.63,1.06,1.65,1.06,3.05v7.12h-2.98v-6.38c0-.78-.14-1.37-.43-1.77-.28-.4-.72-.6-1.33-.6-.91,0-1.53.31-1.86.93-.33.62-.5,1.51-.5,2.67v5.14h-2.98v-10.92h2.28l.4,1.4h.17c.23-.38.52-.68.87-.92.35-.24.74-.41,1.16-.52.43-.11.87-.17,1.33-.17Zm11.54,8.94c.33,0,.64-.03.95-.1.31-.06.62-.15.93-.24v2.22c-.32.14-.72.26-1.19.35-.47.1-.98.15-1.54.15-.65,0-1.24-.1-1.76-.31-.51-.22-.92-.58-1.22-1.1-.29-.53-.44-1.26-.44-2.2v-5.26h-1.43v-1.26l1.64-1,.86-2.3h1.9v2.32h3.06v2.24h-3.06v5.26c0,.42.12.73.35.94.24.2.56.3.95.3Zm16.9-1.06c0,.74-.18,1.37-.53,1.88-.34.51-.86.9-1.55,1.16-.69.26-1.55.39-2.58.39-.76,0-1.42-.05-1.96-.15-.54-.1-1.09-.26-1.64-.49v-2.46c.59.27,1.23.49,1.9.66.68.17,1.28.25,1.8.25.58,0,.99-.08,1.24-.25.25-.18.38-.4.38-.68,0-.18-.05-.35-.16-.49-.1-.15-.31-.32-.65-.5-.33-.19-.85-.43-1.56-.73-.68-.29-1.25-.58-1.69-.87-.44-.29-.76-.64-.98-1.03-.21-.4-.31-.92-.31-1.53,0-1.01.39-1.77,1.17-2.28.79-.51,1.84-.77,3.15-.77.68,0,1.32.07,1.93.21.62.14,1.25.35,1.9.65l-.9,2.15c-.54-.24-1.05-.43-1.53-.58-.48-.15-.96-.22-1.46-.22-.44,0-.76.06-.99.18-.22.12-.33.3-.33.54,0,.18.06.33.17.47.12.14.34.29.66.46.33.16.82.37,1.45.63.62.25,1.16.52,1.61.8.46.27.81.61,1.05,1.03.25.4.37.93.37,1.57Zm6.83-7.88c1.01,0,1.88.19,2.61.59.73.38,1.29.94,1.69,1.68.4.74.6,1.63.6,2.69v1.44h-7.04c.03.84.28,1.5.75,1.98.48.47,1.13.71,1.97.71.7,0,1.34-.07,1.91-.21.58-.14,1.17-.36,1.79-.64v2.31c-.54.27-1.11.46-1.7.59-.59.12-1.3.18-2.14.18-1.09,0-2.06-.2-2.91-.61-.84-.4-1.5-1.02-1.98-1.85-.48-.83-.71-1.87-.71-3.12s.22-2.34.64-3.18c.44-.85,1.04-1.49,1.82-1.91.77-.43,1.68-.64,2.71-.64Zm.02,2.12c-.58,0-1.06.19-1.44.56-.38.37-.6.95-.65,1.75h4.18c0-.44-.09-.84-.24-1.18-.15-.35-.38-.62-.68-.82-.3-.2-.68-.3-1.15-.3Zm3.67-6.32v.21c-.19.18-.44.41-.74.67-.31.27-.64.55-.99.84-.35.29-.7.56-1.04.83-.34.26-.63.48-.89.65h-1.98v-.26c.21-.25.46-.54.74-.88.29-.35.57-.7.85-1.06.28-.36.52-.7.7-1h3.34Zm8.06,15.52c-1.08,0-2-.19-2.76-.59-.76-.4-1.34-1.01-1.74-1.84-.4-.83-.6-1.88-.6-3.17s.22-2.42.67-3.26c.46-.85,1.08-1.47,1.88-1.86.81-.4,1.74-.6,2.8-.6.76,0,1.41.08,1.95.22.55.14,1.03.32,1.45.52l-.88,2.31c-.47-.19-.91-.34-1.31-.46-.4-.12-.81-.19-1.21-.19-.52,0-.95.12-1.3.37-.35.24-.6.61-.77,1.09-.17.49-.25,1.1-.25,1.84s.09,1.32.27,1.8c.18.47.45.83.79,1.06.34.23.77.34,1.26.34.62,0,1.17-.08,1.65-.24.48-.17.95-.4,1.41-.7v2.55c-.46.29-.93.49-1.43.61-.49.13-1.12.19-1.89.19Zm15.88-11.11v10.92h-2.29l-.4-1.4h-.16c-.23.37-.53.67-.88.91-.35.23-.74.41-1.16.52-.42.11-.86.17-1.32.17-.78,0-1.46-.14-2.04-.41-.58-.28-1.03-.71-1.36-1.3-.32-.59-.48-1.35-.48-2.29v-7.12h2.98v6.38c0,.78.14,1.37.42,1.77.28.4.73.6,1.34.6s1.08-.14,1.43-.41c.35-.28.59-.69.72-1.22.14-.54.22-1.2.22-1.97v-5.14h2.98Zm9.22-.21c.15,0,.32.01.52.03.2.01.37.03.49.06l-.22,2.79c-.1-.03-.24-.06-.42-.07-.18-.02-.33-.03-.46-.03-.38,0-.76.05-1.12.15-.36.1-.68.26-.97.48-.29.21-.51.5-.68.86-.16.35-.24.78-.24,1.3v5.56h-2.98v-10.92h2.26l.44,1.84h.15c.21-.37.48-.71.8-1.02.33-.31.69-.56,1.1-.74.42-.19.87-.28,1.35-.28Zm5.97.21v10.92h-2.98v-10.92h2.98Zm-1.48-4.28c.44,0,.82.1,1.14.31.32.2.48.58.48,1.14s-.16.94-.48,1.15c-.32.21-.7.31-1.14.31s-.83-.1-1.15-.31c-.31-.22-.47-.6-.47-1.15s.16-.94.47-1.14c.32-.21.7-.31,1.15-.31Zm12.24,11.95c0,.74-.18,1.37-.53,1.88-.34.51-.86.9-1.55,1.16-.69.26-1.55.39-2.58.39-.76,0-1.42-.05-1.96-.15-.54-.1-1.09-.26-1.64-.49v-2.46c.59.27,1.23.49,1.91.66.68.17,1.28.25,1.8.25.58,0,.99-.08,1.24-.25.25-.18.38-.4.38-.68,0-.18-.05-.35-.16-.49-.1-.15-.31-.32-.64-.5-.33-.19-.85-.43-1.56-.73-.68-.29-1.25-.58-1.69-.87-.44-.29-.76-.64-.98-1.03-.21-.4-.31-.92-.31-1.53,0-1.01.39-1.77,1.17-2.28.79-.51,1.84-.77,3.15-.77.68,0,1.32.07,1.93.21.62.14,1.25.35,1.9.65l-.9,2.15c-.54-.24-1.05-.43-1.53-.58-.48-.15-.96-.22-1.46-.22-.44,0-.77.06-.99.18-.22.12-.33.3-.33.54,0,.18.05.33.17.47.12.14.34.29.66.46.33.16.82.37,1.45.63.62.25,1.16.52,1.61.8.46.27.81.61,1.05,1.03.25.4.37.93.37,1.57Zm6.83-7.88c1.01,0,1.88.19,2.61.59.73.38,1.29.94,1.69,1.68.4.74.6,1.63.6,2.69v1.44h-7.04c.03.84.28,1.5.75,1.98.47.47,1.13.71,1.97.71.7,0,1.33-.07,1.91-.21.58-.14,1.18-.36,1.79-.64v2.31c-.54.27-1.11.46-1.7.59-.59.12-1.3.18-2.14.18-1.09,0-2.06-.2-2.91-.61-.84-.4-1.5-1.02-1.98-1.85-.47-.83-.71-1.87-.71-3.12s.22-2.34.65-3.18c.44-.85,1.04-1.49,1.82-1.91.78-.43,1.68-.64,2.71-.64Zm.02,2.12c-.58,0-1.06.19-1.45.56-.38.37-.6.95-.66,1.75h4.18c0-.44-.09-.84-.24-1.18-.15-.35-.38-.62-.68-.82-.3-.2-.68-.3-1.15-.3Zm3.67-6.32v.21c-.19.18-.44.41-.74.67-.31.27-.64.55-.99.84-.35.29-.7.56-1.04.83-.34.26-.64.48-.89.65h-1.98v-.26c.21-.25.46-.54.74-.88.29-.35.57-.7.85-1.06.28-.36.51-.7.7-1h3.34Z"/><path d="m834.71,103.04c0,.85-.21,1.58-.61,2.21-.41.62-1.01,1.11-1.8,1.45-.78.34-1.73.51-2.85.51-.49,0-.98-.03-1.46-.1-.47-.07-.92-.16-1.36-.28-.43-.13-.84-.29-1.23-.48v-2.81c.68.3,1.38.57,2.11.81s1.45.36,2.17.36c.49,0,.89-.07,1.19-.19.31-.13.53-.31.66-.54.14-.23.21-.49.21-.78,0-.36-.12-.66-.36-.92-.24-.25-.57-.49-1-.71-.42-.22-.89-.46-1.42-.71-.33-.16-.69-.35-1.08-.57-.39-.23-.76-.5-1.11-.83-.35-.33-.64-.72-.87-1.18-.22-.47-.33-1.03-.33-1.68,0-.85.2-1.58.59-2.19.39-.61.95-1.07,1.67-1.39.73-.33,1.59-.49,2.58-.49.74,0,1.45.09,2.12.26.68.17,1.38.42,2.12.74l-.98,2.35c-.66-.27-1.25-.47-1.77-.61-.52-.15-1.05-.22-1.59-.22-.38,0-.7.06-.97.19-.27.12-.47.29-.6.51-.14.21-.21.47-.21.75,0,.34.1.62.29.86.2.23.5.45.9.66.4.22.9.47,1.5.75.73.34,1.35.71,1.86,1.08.52.37.92.81,1.2,1.32.28.5.42,1.13.42,1.88Zm5.33-6.95v10.92h-2.98v-10.92h2.98Zm-1.48-4.28c.44,0,.82.1,1.14.31.32.2.48.58.48,1.14s-.16.94-.48,1.15c-.32.21-.7.31-1.14.31s-.83-.1-1.15-.31c-.31-.22-.47-.6-.47-1.15s.16-.94.47-1.14c.32-.21.7-.31,1.15-.31Zm9.22,13.02c.33,0,.64-.03.95-.1.31-.06.62-.15.93-.24v2.22c-.32.14-.72.26-1.19.35-.47.1-.98.15-1.54.15-.65,0-1.24-.1-1.76-.31-.51-.22-.92-.58-1.22-1.1-.29-.53-.44-1.26-.44-2.2v-5.26h-1.43v-1.26l1.64-1,.86-2.3h1.91v2.32h3.06v2.24h-3.06v5.26c0,.42.12.73.35.94.24.2.56.3.95.3Zm8.59-8.94c1.01,0,1.88.19,2.61.59.73.38,1.29.94,1.69,1.68.4.74.6,1.63.6,2.69v1.44h-7.04c.03.84.28,1.5.75,1.98.47.47,1.13.71,1.97.71.7,0,1.33-.07,1.91-.21.58-.14,1.17-.36,1.79-.64v2.31c-.54.27-1.11.46-1.7.59-.59.12-1.3.18-2.14.18-1.09,0-2.06-.2-2.91-.61-.84-.4-1.5-1.02-1.98-1.85-.47-.83-.71-1.87-.71-3.12s.22-2.34.65-3.18c.44-.85,1.04-1.49,1.82-1.91.78-.43,1.68-.64,2.71-.64Zm.02,2.12c-.58,0-1.06.19-1.45.56-.38.37-.6.95-.66,1.75h4.18c0-.44-.09-.84-.24-1.18-.15-.35-.38-.62-.68-.82-.3-.2-.68-.3-1.15-.3Zm22.41,3.53c0,.91-.12,1.72-.37,2.42-.24.7-.6,1.3-1.07,1.79-.46.48-1.02.85-1.68,1.09-.65.25-1.39.37-2.21.37-.77,0-1.47-.12-2.12-.37-.64-.25-1.2-.61-1.67-1.09-.47-.49-.83-1.08-1.09-1.79-.25-.7-.38-1.51-.38-2.42,0-1.21.22-2.24.65-3.08.43-.84,1.04-1.48,1.84-1.91.79-.44,1.74-.65,2.84-.65,1.02,0,1.93.22,2.71.65.79.44,1.42,1.07,1.86,1.91.46.84.68,1.87.68,3.08Zm-7.55,0c0,.72.08,1.32.23,1.81.16.49.4.86.73,1.1.33.25.76.37,1.3.37s.95-.12,1.28-.37c.33-.25.57-.62.72-1.1.16-.49.23-1.09.23-1.81s-.08-1.32-.23-1.8c-.15-.48-.39-.84-.72-1.08-.33-.24-.76-.36-1.3-.36-.79,0-1.36.27-1.72.81-.35.54-.53,1.35-.53,2.43Zm16.04-3.2h-2.58v8.68h-2.98v-8.68h-1.64v-1.43l1.64-.8v-.8c0-.93.16-1.65.47-2.17.32-.52.76-.89,1.34-1.09.58-.21,1.26-.32,2.05-.32.58,0,1.11.05,1.58.15.47.09.86.2,1.16.31l-.76,2.19c-.23-.07-.47-.14-.74-.2-.27-.06-.57-.09-.92-.09-.42,0-.72.13-.92.38-.19.25-.28.57-.28.96v.68h2.58v2.24Zm7.74,0h-2.58v8.68h-2.98v-8.68h-1.64v-1.43l1.64-.8v-.8c0-.93.16-1.65.47-2.17.32-.52.77-.89,1.34-1.09.58-.21,1.26-.32,2.05-.32.58,0,1.11.05,1.58.15.48.09.86.2,1.16.31l-.76,2.19c-.23-.07-.48-.14-.74-.2-.27-.06-.57-.09-.92-.09-.42,0-.72.13-.92.38-.19.25-.28.57-.28.96v.68h2.58v2.24Zm4.68-2.24v10.92h-2.98v-10.92h2.98Zm-1.48-4.28c.44,0,.82.1,1.14.31.32.2.48.58.48,1.14s-.16.94-.48,1.15c-.32.21-.7.31-1.14.31s-.83-.1-1.15-.31c-.31-.22-.47-.6-.47-1.15s.16-.94.47-1.14c.32-.21.7-.31,1.15-.31Zm9.04,15.39c-1.08,0-2-.19-2.76-.59-.76-.4-1.34-1.01-1.74-1.84-.4-.83-.6-1.88-.6-3.17s.22-2.42.67-3.26c.46-.85,1.08-1.47,1.89-1.86.81-.4,1.74-.6,2.8-.6.76,0,1.41.08,1.95.22.55.14,1.04.32,1.45.52l-.88,2.31c-.47-.19-.91-.34-1.31-.46-.4-.12-.81-.19-1.21-.19-.52,0-.95.12-1.3.37-.34.24-.6.61-.77,1.09-.17.49-.25,1.1-.25,1.84s.09,1.32.27,1.8c.18.47.45.83.79,1.06.35.23.77.34,1.26.34.62,0,1.17-.08,1.65-.24.48-.17.95-.4,1.41-.7v2.55c-.46.29-.93.49-1.44.61-.49.13-1.12.19-1.88.19Zm8.84-11.11v10.92h-2.98v-10.92h2.98Zm-1.48-4.28c.44,0,.82.1,1.14.31.32.2.48.58.48,1.14s-.16.94-.48,1.15c-.32.21-.7.31-1.14.31s-.83-.1-1.15-.31c-.31-.22-.47-.6-.47-1.15s.16-.94.47-1.14c.32-.21.7-.31,1.15-.31Zm9.12,4.07c1.01,0,1.88.19,2.61.59.73.38,1.29.94,1.69,1.68.4.74.6,1.63.6,2.69v1.44h-7.04c.03.84.28,1.5.75,1.98.48.47,1.13.71,1.97.71.7,0,1.34-.07,1.91-.21.58-.14,1.18-.36,1.79-.64v2.31c-.54.27-1.11.46-1.7.59-.59.12-1.3.18-2.14.18-1.09,0-2.06-.2-2.91-.61-.84-.4-1.5-1.02-1.98-1.85-.47-.83-.71-1.87-.71-3.12s.22-2.34.65-3.18c.44-.85,1.04-1.49,1.82-1.91.78-.43,1.68-.64,2.71-.64Zm.02,2.12c-.58,0-1.06.19-1.45.56-.38.37-.6.95-.65,1.75h4.18c0-.44-.09-.84-.24-1.18-.15-.35-.38-.62-.68-.82-.3-.2-.68-.3-1.15-.3Zm10.27,9h-2.98v-15.2h2.98v15.2Z"/><line class="cls-1" x1="270.05" x2="270.05" y2="107"/><line class="cls-1" x1="699.05" x2="699.05" y2="107"/></svg>