<?xml version="1.0" encoding="UTF-8"?><svg id="Calque_1" xmlns="http://www.w3.org/2000/svg" viewBox="0 0 803.86 245.17"><defs><style>.cls-1{fill:#fff;}</style></defs><g><path class="cls-1" d="m320.04.86h18.55c1.24,0,2.25,1.01,2.25,2.25v82.3c0,1.24-1.01,2.25-2.25,2.25h-18.55c-1.24,0-2.25-1.01-2.25-2.25V3.11c0-1.24,1.01-2.25,2.25-2.25Z"/><path class="cls-1" d="m430.92,3v83.27c0,1.24-1.01,2.25-2.25,2.25h-4.17c-.58,0-1.14-.23-1.56-.63l-40.17-38.91c-1.42-1.38-3.81-.37-3.81,1.61v34.88c0,1.24-1.01,2.25-2.25,2.25h-18.55c-1.24,0-2.25-1.01-2.25-2.25V2.25c0-1.24,1.01-2.25,2.25-2.25h4.28c.58,0,1.14.23,1.56.63l40.01,38.75c1.42,1.38,3.81.37,3.81-1.61V3c0-1.24,1.01-2.25,2.25-2.25h18.61c1.24,0,2.25,1.01,2.25,2.25Z"/><path class="cls-1" d="m468.76,24.54v9.56c0,1.24,1.01,2.25,2.25,2.25h23.08c1.24,0,2.25,1.01,2.25,2.25v14.78c0,1.24-1.01,2.25-2.25,2.25h-23.08c-1.24,0-2.25,1.01-2.25,2.25v27.65c0,1.24-1.01,2.25-2.25,2.25h-18.28c-1.24,0-2.25-1.01-2.25-2.25V2.89c0-1.24,1.01-2.25,2.25-2.25h51.77c1.24,0,2.25,1.01,2.25,2.25v17.15c0,1.24-1.01,2.25-2.25,2.25h-29c-1.24,0-2.25,1.01-2.25,2.25Z"/><path class="cls-1" d="m514.29.86h18.55c1.24,0,2.25,1.01,2.25,2.25v82.3c0,1.24-1.01,2.25-2.25,2.25h-18.55c-1.24,0-2.25-1.01-2.25-2.25V3.11c0-1.24,1.01-2.25,2.25-2.25Z"/><path class="cls-1" d="m625.17,3v83.27c0,1.24-1.01,2.25-2.25,2.25h-4.17c-.58,0-1.14-.23-1.56-.63l-40.17-38.91c-1.42-1.38-3.81-.37-3.81,1.61v34.88c0,1.24-1.01,2.25-2.25,2.25h-18.55c-1.24,0-2.25-1.01-2.25-2.25V2.25c0-1.24,1.01-2.25,2.25-2.25h4.27c.58,0,1.14.23,1.56.63l40.01,38.75c1.42,1.38,3.81.37,3.81-1.61V3c0-1.24,1.01-2.25,2.25-2.25h18.61c1.24,0,2.25,1.01,2.25,2.25Z"/><path class="cls-1" d="m642.49.86h18.55c1.24,0,2.25,1.01,2.25,2.25v82.3c0,1.24-1.01,2.25-2.25,2.25h-18.55c-1.24,0-2.25-1.01-2.25-2.25V3.11c0-1.24,1.01-2.25,2.25-2.25Z"/><path class="cls-1" d="m735.55,22.4h-16.29c-1.24,0-2.25,1.01-2.25,2.25v60.77c0,1.24-1.01,2.25-2.25,2.25h-18.61c-1.24,0-2.25-1.01-2.25-2.25V24.64c0-1.24-1.01-2.25-2.25-2.25h-16.35c-1.24,0-2.25-1.01-2.25-2.25V3.11c0-1.24,1.01-2.25,2.25-2.25h60.23c1.24,0,2.25,1.01,2.25,2.25v17.05c0,1.24-1.01,2.25-2.25,2.25Z"/><path class="cls-1" d="m770.37,24.54v7.62c0,1.24,1.01,2.25,2.25,2.25h23.08c1.24,0,2.25,1.01,2.25,2.25v14.73c0,1.24-1.01,2.25-2.25,2.25h-23.08c-1.24,0-2.25,1.01-2.25,2.25v7.95c0,1.24,1.01,2.25,2.25,2.25h29c1.24,0,2.25,1.01,2.25,2.25v17.1c0,1.24-1.01,2.25-2.25,2.25h-51.77c-1.24,0-2.25-1.01-2.25-2.25V3.11c0-1.24,1.01-2.25,2.25-2.25h51.77c1.24,0,2.25,1.01,2.25,2.25v16.94c0,1.24-1.01,2.25-2.25,2.25h-29c-1.24,0-2.25,1.01-2.25,2.25Z"/><path class="cls-1" d="m340.57,181.95v9.56c0,1.24,1.01,2.25,2.25,2.25h23.08c1.24,0,2.25,1.01,2.25,2.25v14.78c0,1.24-1.01,2.25-2.25,2.25h-23.08c-1.24,0-2.25,1.01-2.25,2.25v27.65c0,1.24-1.01,2.25-2.25,2.25h-18.28c-1.24,0-2.25-1.01-2.25-2.25v-82.62c0-1.24,1.01-2.25,2.25-2.25h51.77c1.24,0,2.25,1.01,2.25,2.25v17.15c0,1.24-1.01,2.25-2.25,2.25h-29c-1.24,0-2.25,1.01-2.25,2.25Z"/><path class="cls-1" d="m383.1,211.09v-53c0-1.24,1.01-2.25,2.25-2.25h18.71c1.24,0,2.25,1.01,2.25,2.25v52.94c0,7.21,6.19,12.01,12.76,12.01s12.87-4.9,12.87-12.01v-52.94c0-1.24,1.01-2.25,2.25-2.25h18.71c1.24,0,2.25,1.01,2.25,2.25v53c0,19.92-16.15,33.97-36.02,33.97s-36.02-14.05-36.02-33.97Z"/><path class="cls-1" d="m492.24,181.95v7.62c0,1.24,1.01,2.25,2.25,2.25h23.08c1.24,0,2.25,1.01,2.25,2.25v14.73c0,1.24-1.01,2.25-2.25,2.25h-23.08c-1.24,0-2.25,1.01-2.25,2.25v7.95c0,1.24,1.01,2.25,2.25,2.25h29c1.24,0,2.25,1.01,2.25,2.25v17.1c0,1.24-1.01,2.25-2.25,2.25h-51.77c-1.24,0-2.25-1.01-2.25-2.25v-82.3c0-1.24,1.01-2.25,2.25-2.25h51.77c1.24,0,2.25,1.01,2.25,2.25v16.94c0,1.24-1.01,2.25-2.25,2.25h-29c-1.24,0-2.25,1.01-2.25,2.25Z"/><path class="cls-1" d="m594.8,225.67v17.15c0,1.24-1.01,2.25-2.25,2.25h-51.77c-1.24,0-2.25-1.01-2.25-2.25v-82.3c0-1.24,1.01-2.25,2.25-2.25h18.55c1.24,0,2.25,1.01,2.25,2.25v60.66c0,1.24,1.01,2.25,2.25,2.25h28.73c1.24,0,2.25,1.01,2.25,2.25Z"/></g><path class="cls-1" d="m251.62,23.03C237.27,1.54,206.33-5.53,181.54,4.45c-14.27,5.75-26.12,14.96-37.02,25.52l-1.4,1.43.17.18c8.3,8.56,21.52,9.73,31.37,3,2.54-1.74,5.19-3.35,7.96-4.8,9.62-5.04,19.87-7.18,30.49-4.21,13.38,3.73,20.86,13.16,23.59,26.54,3.74,18.29-6.8,36.14-24.8,41.23-12.28,3.48-24.03.88-33.98-6.7-9.36-7.14-18.08-15.12-27.18-23.08-.33-.29-.62-.62-.85-.98l-8.85-9.24-2.72-2.72c-3.83-3.83-10.05-3.83-13.88,0l-1.04,1.04-6.47,6.65s0,0,0,0h0s-5.63,5.77-5.63,5.77l-.07-.07c-6.43,5.91-12.63,11.68-19.04,17.19-6.84,5.87-14.66,10.15-23.54,12.25-15.99,3.78-30.83-1.87-38.17-14.51-8.29-14.27-6.59-31.66,4.27-43.57,9.45-10.37,25.33-14.24,39.09-8.43,4.88,2.06,9.61,4.74,14.04,7.8l-.05-.04c9.84,6.73,23.81,5.45,32.11-3.11-.88-.86-1.76-1.7-2.65-2.53-10.82-10.09-22.01-19.63-36.23-24.86C57.6-4.45,31.82,1.73,15.22,20.24,2.98,33.89-1.77,49.9.59,67.99c2.42,18.55,10.83,33.54,27.33,43.08,15.44,8.93,31.48,9.67,47.64,5.02l-17.73,17.73c-5.66,5.66-6.27,14.45-1.82,20.78,2.61,3.72,5.08,7.53,7.44,11.42l28.75,47.32c-2.61,5.45,1.47,14.68,10.36,22.29,10.31,8.83,23.17,12.13,28.72,7.37.03-.03.06-.06.1-.09.03.03.06.06.1.09,5.56,4.76,18.42,1.46,28.72-7.37,8.89-7.61,12.97-16.85,10.36-22.29l28.75-47.32c2.36-3.88,4.83-7.7,7.44-11.42,4.44-6.33,3.83-15.12-1.83-20.78l-16.79-16.79c9.3,2.4,19,2.52,29.03-.12,43.05-11.36,58.02-58.59,34.46-93.87Zm-160.54,126.16c-11.72-10.52-4.48-20.17-4.48-20.17,18.97,10,13.97,8.45,22.24,18.79,8.28,10.35-6.03,11.9-17.76,1.38Zm36.32,86.46c-1.26,1.26-3.74,1.46-6.8.55-3.66-1.1-7.73-3.7-11.18-7.14-7.03-7.03-9.28-15.29-6.6-17.98.73-.73,1.88-1.1,3.31-1.1,3.8,0,9.56,2.59,14.67,7.7,7.03,7.03,9.28,15.29,6.6,17.98Zm33.06-17.77c-1.1,3.66-3.7,7.73-7.14,11.18-3.44,3.44-7.51,6.05-11.17,7.14-3.06.92-5.54.72-6.8-.55-2.69-2.69-.44-10.95,6.6-17.98,5.11-5.11,10.87-7.7,14.67-7.7,1.43,0,2.58.37,3.31,1.1,1.26,1.26,1.46,3.74.55,6.8Zm11.2-68.69c-11.72,10.52-26.04,8.97-17.76-1.38,8.28-10.35,3.28-8.79,22.24-18.79,0,0,7.24,9.66-4.48,20.17Z"/></svg>