<?xml version="1.0" encoding="UTF-8"?><svg id="Calque_1" xmlns="http://www.w3.org/2000/svg" viewBox="0 0 19.99 20"><defs><style>.cls-1{fill:#fff;}</style></defs><path class="cls-1" d="m6,20c-.55,0-1.02-.2-1.41-.59-.39-.39-.59-.86-.59-1.41s.2-1.02.59-1.41c.39-.39.86-.59,1.41-.59s1.02.2,1.41.59c.39.39.59.86.59,1.41s-.2,1.02-.59,1.41c-.39.39-.86.59-1.41.59Zm10,0c-.55,0-1.02-.2-1.41-.59-.39-.39-.59-.86-.59-1.41s.2-1.02.59-1.41c.39-.39.86-.59,1.41-.59s1.02.2,1.41.59c.39.39.59.86.59,1.41s-.2,1.02-.59,1.41c-.39.39-.86.59-1.41.59Zm-10-5c-.75,0-1.32-.33-1.7-.99-.38-.66-.4-1.31-.05-1.96l1.35-2.45L2,2H.98c-.28,0-.52-.1-.7-.29-.18-.19-.27-.43-.27-.71S.1.48.29.29c.19-.19.43-.29.71-.29h1.62c.18,0,.36.05.53.15.17.1.29.24.38.42l.67,1.42h14.75c.45,0,.76.17.92.5s.16.68-.02,1.05l-3.55,6.4c-.18.33-.42.59-.72.78-.3.18-.64.27-1.03.27h-7.45l-1.1,2h11.02c.28,0,.52.1.7.29.18.19.27.43.27.71s-.1.52-.29.71c-.19.19-.43.29-.71.29H6Z"/></svg>